<svg width="22" height="22" viewBox="0 0 22 22" fill="none" xmlns="http://www.w3.org/2000/svg">
<path fill-rule="evenodd" clip-rule="evenodd" d="M8.64317 8.22156H12.0477V9.9174C12.5381 8.94206 13.7958 8.06573 15.685 8.06573C19.3068 8.06573 20.1666 10.0072 20.1666 13.5694V20.1666H16.4999V14.3806C16.4999 12.3521 16.0095 11.2081 14.761 11.2081C13.0294 11.2081 12.3098 12.441 12.3098 14.3797V20.1666H8.64317V8.22156ZM2.35575 20.0108H6.02242V8.06573H2.35575V20.0108ZM6.54767 4.17081C6.5478 4.47815 6.48685 4.78245 6.36836 5.06602C6.24986 5.34959 6.07618 5.60678 5.85742 5.82265C5.41412 6.26322 4.81408 6.50983 4.18909 6.50831C3.56519 6.50789 2.96654 6.26191 2.52259 5.82356C2.30461 5.60697 2.13152 5.34949 2.01323 5.06588C1.89494 4.78227 1.83378 4.4781 1.83325 4.17081C1.83325 3.55023 2.08075 2.95623 2.5235 2.51806C2.96706 2.07912 3.56597 1.83304 4.19 1.83331C4.81517 1.83331 5.41467 2.0799 5.85742 2.51806C6.29925 2.95623 6.54767 3.55023 6.54767 4.17081Z" fill="#525BEA"/>
</svg>
