<svg width="41" height="41" viewBox="0 0 41 41" fill="none" xmlns="http://www.w3.org/2000/svg">
<circle cx="20.5" cy="20.5" r="19" stroke="#525BEA" stroke-width="3"/>
<path fill-rule="evenodd" clip-rule="evenodd" d="M18.6432 17.2216H22.0477V18.9174C22.5381 17.9421 23.7958 17.0657 25.685 17.0657C29.3068 17.0657 30.1666 19.0072 30.1666 22.5694V29.1666H26.4999V23.3806C26.4999 21.3521 26.0095 20.2081 24.761 20.2081C23.0294 20.2081 22.3098 21.441 22.3098 23.3797V29.1666H18.6432V17.2216V17.2216ZM12.3558 29.0108H16.0224V17.0657H12.3558V29.0108V29.0108ZM16.5477 13.1708C16.5478 13.4781 16.4869 13.7824 16.3684 14.066C16.2499 14.3496 16.0762 14.6068 15.8574 14.8226C15.4141 15.2632 14.8141 15.5098 14.1891 15.5083C13.5652 15.5079 12.9665 15.2619 12.5226 14.8236C12.3046 14.607 12.1315 14.3495 12.0132 14.0659C11.8949 13.7823 11.8338 13.4781 11.8333 13.1708C11.8333 12.5502 12.0808 11.9562 12.5235 11.5181C12.9671 11.0791 13.566 10.833 14.19 10.8333C14.8152 10.8333 15.4147 11.0799 15.8574 11.5181C16.2993 11.9562 16.5477 12.5502 16.5477 13.1708Z" fill="#525BEA"/>
</svg>
