<svg width="275" height="52" viewBox="0 0 275 52" fill="none" xmlns="http://www.w3.org/2000/svg">
<path d="M0 15.6V45.5754C0 45.5754 12.0146 45.1282 26 52C39.9854 45.1282 52 45.5754 52 45.5754V15.6C52 15.6 37.8196 15.6 26 22.0246C14.1804 15.6 0 15.6 0 15.6Z" fill="#7F85D0"/>
<path d="M26 15.6C30.3078 15.6 33.8 12.1078 33.8 7.8C33.8 3.49218 30.3078 0 26 0C21.6921 0 18.2 3.49218 18.2 7.8C18.2 12.1078 21.6921 15.6 26 15.6Z" fill="#7F85D0"/>
<path d="M77.0453 25.436C77.0453 23.1711 77.5136 21.1567 78.45 19.3927C79.4082 17.6069 80.7584 16.224 82.5007 15.244C84.2429 14.2422 86.2464 13.7413 88.5113 13.7413C91.386 13.7413 93.8033 14.5144 95.7633 16.0607C97.7233 17.5851 98.9864 19.6649 99.5527 22.3H92.66C92.2462 21.4289 91.6691 20.7647 90.9287 20.3073C90.21 19.85 89.3716 19.6213 88.4133 19.6213C86.9324 19.6213 85.7456 20.1549 84.8527 21.222C83.9816 22.2673 83.546 23.672 83.546 25.436C83.546 27.2218 83.9816 28.6482 84.8527 29.7153C85.7456 30.7607 86.9324 31.2833 88.4133 31.2833C89.3716 31.2833 90.21 31.0547 90.9287 30.5973C91.6691 30.14 92.2462 29.4758 92.66 28.6047H99.5527C98.9864 31.2398 97.7233 33.3304 95.7633 34.8767C93.8033 36.4011 91.386 37.1633 88.5113 37.1633C86.2464 37.1633 84.2429 36.6733 82.5007 35.6933C80.7584 34.6916 79.4082 33.3087 78.45 31.5447C77.5136 29.7589 77.0453 27.7227 77.0453 25.436ZM108.987 32.1H116.141V37H102.585V13.97H108.987V32.1ZM133.2 33.2433H125.033L123.792 37H117.063L125.458 13.97H132.841L141.203 37H134.441L133.2 33.2433ZM131.599 28.3433L129.117 20.8953L126.667 28.3433H131.599ZM151.98 37.2287C149.301 37.2287 147.101 36.5971 145.381 35.334C143.66 34.0491 142.735 32.2198 142.604 29.846H149.432C149.497 30.6518 149.736 31.2398 150.15 31.61C150.564 31.9802 151.098 32.1653 151.751 32.1653C152.339 32.1653 152.818 32.0238 153.188 31.7407C153.58 31.4358 153.776 31.022 153.776 30.4993C153.776 29.8242 153.46 29.3016 152.829 28.9313C152.197 28.5611 151.174 28.1473 149.758 27.69C148.256 27.1891 147.036 26.71 146.1 26.2527C145.185 25.7736 144.379 25.0876 143.682 24.1947C143.007 23.28 142.67 22.0931 142.67 20.634C142.67 19.1531 143.04 17.89 143.78 16.8447C144.521 15.7776 145.544 14.9718 146.851 14.4273C148.158 13.8829 149.638 13.6107 151.294 13.6107C153.972 13.6107 156.106 14.2422 157.696 15.5053C159.308 16.7467 160.168 18.4998 160.277 20.7647H153.319C153.297 20.0678 153.079 19.5451 152.666 19.1967C152.274 18.8482 151.762 18.674 151.13 18.674C150.651 18.674 150.259 18.8156 149.954 19.0987C149.649 19.3818 149.497 19.7847 149.497 20.3073C149.497 20.7429 149.66 21.124 149.987 21.4507C150.335 21.7556 150.76 22.0278 151.261 22.2673C151.762 22.4851 152.502 22.7682 153.482 23.1167C154.941 23.6176 156.139 24.1184 157.076 24.6193C158.034 25.0984 158.85 25.7844 159.526 26.6773C160.222 27.5484 160.571 28.6591 160.571 30.0093C160.571 31.3813 160.222 32.6118 159.526 33.7007C158.85 34.7896 157.86 35.6498 156.553 36.2813C155.268 36.9129 153.744 37.2287 151.98 37.2287ZM172.237 37.2287C169.558 37.2287 167.359 36.5971 165.638 35.334C163.918 34.0491 162.992 32.2198 162.861 29.846H169.689C169.754 30.6518 169.994 31.2398 170.407 31.61C170.821 31.9802 171.355 32.1653 172.008 32.1653C172.596 32.1653 173.075 32.0238 173.445 31.7407C173.837 31.4358 174.033 31.022 174.033 30.4993C174.033 29.8242 173.718 29.3016 173.086 28.9313C172.455 28.5611 171.431 28.1473 170.015 27.69C168.513 27.1891 167.293 26.71 166.357 26.2527C165.442 25.7736 164.636 25.0876 163.939 24.1947C163.264 23.28 162.927 22.0931 162.927 20.634C162.927 19.1531 163.297 17.89 164.037 16.8447C164.778 15.7776 165.801 14.9718 167.108 14.4273C168.415 13.8829 169.896 13.6107 171.551 13.6107C174.229 13.6107 176.364 14.2422 177.953 15.5053C179.565 16.7467 180.425 18.4998 180.534 20.7647H173.576C173.554 20.0678 173.337 19.5451 172.923 19.1967C172.531 18.8482 172.019 18.674 171.387 18.674C170.908 18.674 170.516 18.8156 170.211 19.0987C169.907 19.3818 169.754 19.7847 169.754 20.3073C169.754 20.7429 169.917 21.124 170.244 21.4507C170.593 21.7556 171.017 22.0278 171.518 22.2673C172.019 22.4851 172.759 22.7682 173.739 23.1167C175.199 23.6176 176.396 24.1184 177.333 24.6193C178.291 25.0984 179.108 25.7844 179.783 26.6773C180.48 27.5484 180.828 28.6591 180.828 30.0093C180.828 31.3813 180.48 32.6118 179.783 33.7007C179.108 34.7896 178.117 35.6498 176.81 36.2813C175.525 36.9129 174.001 37.2287 172.237 37.2287ZM210.689 13.97V37H204.287V24.2927L199.942 37H194.585L190.207 24.1947V37H183.805V13.97H191.547L197.329 28.9313L202.98 13.97H210.689ZM228.903 33.2433H220.737L219.495 37H212.766L221.161 13.97H228.544L236.907 37H230.145L228.903 33.2433ZM227.303 28.3433L224.82 20.8953L222.37 28.3433H227.303ZM256.339 13.97V19.066H250.198V37H243.795V19.066H237.719V13.97H256.339ZM265.111 19.0987V22.8553H272.461V27.7227H265.111V31.8713H273.441V37H258.708V13.97H273.441V19.0987H265.111Z" fill="#8A8EE5"/>
</svg>
