<svg width="41" height="41" viewBox="0 0 41 41" fill="none" xmlns="http://www.w3.org/2000/svg">
<circle cx="20.5" cy="20.5" r="19" stroke="#525BEA" stroke-width="3"/>
<path d="M16.9108 30.625C25.213 30.625 29.7546 23.7459 29.7546 17.7907C29.7546 17.5982 29.7546 17.403 29.7464 17.2105C30.6306 16.5704 31.3937 15.7779 32 14.8702C31.1741 15.2344 30.2988 15.4744 29.4026 15.5825C30.3466 15.0182 31.0536 14.1304 31.3922 13.0841C30.5054 13.6095 29.5346 13.9784 28.5226 14.1745C27.8422 13.4499 26.9419 12.9699 25.9611 12.8088C24.9803 12.6477 23.9737 12.8145 23.0973 13.2834C22.2209 13.7523 21.5236 14.4971 21.1134 15.4024C20.7031 16.3078 20.6029 17.3231 20.8281 18.2912C19.0334 18.2012 17.2776 17.735 15.6747 16.9227C14.0717 16.1105 12.6574 14.9704 11.5235 13.5764C10.9478 14.5706 10.7722 15.7467 11.0321 16.8657C11.2921 17.9848 11.9683 18.963 12.9232 19.6016C12.2076 19.5773 11.5077 19.3851 10.88 19.0406V19.1025C10.8812 20.144 11.242 21.1532 11.9015 21.9594C12.5609 22.7656 13.4784 23.3194 14.499 23.5272C14.1116 23.6339 13.7114 23.6871 13.3096 23.6854C13.0264 23.6862 12.7436 23.66 12.4654 23.607C12.7538 24.5036 13.3155 25.2875 14.0717 25.8489C14.8279 26.4103 15.7408 26.7211 16.6825 26.7379C15.0828 27.9943 13.1067 28.6758 11.0725 28.6725C10.7141 28.674 10.3559 28.6533 10 28.6106C12.0646 29.9268 14.4623 30.6257 16.9108 30.625V30.625Z" fill="#525BEA"/>
</svg>
